<?xml version="1.0" standalone="no"?>
<!DOCTYPE svg PUBLIC "-//W3C//DTD SVG 20010904//EN"
 "http://www.w3.org/TR/2001/REC-SVG-20010904/DTD/svg10.dtd">
<svg version="1.0" xmlns="http://www.w3.org/2000/svg"
 width="150.000000pt" height="150.000000pt" viewBox="0 0 150.000000 150.000000"
 preserveAspectRatio="xMidYMid meet">
<metadata>
Created by potrace 1.11, written by Peter Selinger 2001-2013
</metadata>
<g transform="translate(0.000000,150.000000) scale(0.100000,-0.100000)"
fill="#000000" stroke="none">
<path d="M0 750 l0 -750 750 0 750 0 0 750 0 750 -750 0 -750 0 0 -750z m747
501 c73 -10 135 -20 138 -23 11 -10 74 -339 68 -354 -9 -24 -61 -46 -94 -39
-32 7 -52 35 -43 60 8 19 55 45 84 45 11 0 20 3 20 8 0 25 -44 229 -52 237 -8
9 -248 46 -257 39 -1 -1 12 -76 30 -165 l33 -162 -28 -23 c-31 -28 -77 -31
-100 -8 -35 34 -6 80 56 90 l34 6 -23 112 c-44 205 -43 196 -19 196 11 0 81
-9 153 -19z m41 -123 c7 -7 12 -21 12 -33 0 -12 -5 -26 -12 -33 -7 -7 -21 -12
-33 -12 -40 0 -61 50 -33 78 7 7 21 12 33 12 12 0 26 -5 33 -12z m-4 -110 c3
-7 7 -49 10 -94 l6 -81 -42 0 -43 -1 7 81 c3 45 7 88 7 95 1 6 12 12 26 12 14
0 27 -6 29 -12z m48 -214 c68 -22 78 -29 78 -49 l0 -24 -75 26 -76 27 -79 -26
-80 -26 0 22 c0 17 13 26 73 48 39 15 74 27 77 27 3 1 40 -11 82 -25z m-9 -64
c8 -7 12 -308 5 -316 -2 -2 -18 5 -34 15 l-30 19 3 135 c2 85 0 138 -7 142 -7
4 -10 -42 -10 -134 l0 -141 -35 0 -35 0 0 139 0 139 37 15 c36 14 82 9 106
-13z m-52 -311 c19 -7 42 -19 51 -27 16 -13 22 -13 61 2 23 9 60 16 81 16 40
0 106 -33 106 -53 0 -7 3 -29 6 -49 l7 -38 -327 0 c-179 0 -326 2 -326 5 0 3
6 21 14 40 16 37 67 75 102 75 12 0 32 9 45 20 28 23 124 27 180 9z"/>
</g>
</svg>
